<svg width="1280" height="260" viewBox="0 0 1280 260" fill="none"
  xmlns="http://www.w3.org/2000/svg" role="img" aria-labelledby="title desc"
  shape-rendering="crispEdges">
  <title id="title">cv-workbench deterministic CV toolkit</title>
  <desc id="desc">A dark, quiet path through source records, selection, rendering, and verification.</desc>
  <rect width="1280" height="260" fill="#1E1D1A"/>
  <g font-family="Menlo, Monaco, Consolas, monospace">
    <text x="52" y="58" fill="#969087" font-size="12" letter-spacing="1.4">DETERMINISTIC CV TOOLKIT</text>
    <text x="48" y="142" fill="#F3EFE7" font-size="48" font-weight="700" letter-spacing="-2">cv-workbench</text>
    <rect x="52" y="177" width="40" height="6" fill="#D97757"/>
  </g>
  <path d="M432 46V214" stroke="#3F3C37" stroke-width="2"/>
  <path d="M520 132H1192" stroke="#5A5650" stroke-width="2"/>
  <g font-family="Menlo, Monaco, Consolas, monospace" font-size="12" font-weight="700" letter-spacing="0.6">
    <g transform="translate(520 0)">
      <rect x="0" y="78" width="58" height="42" stroke="#F3EFE7" stroke-width="5"/>
      <path d="M10 90H48M10 101H40M10 112H46" stroke="#D97757" stroke-width="4"/>
      <text x="0" y="174" fill="#F3EFE7">SOURCE</text>
    </g>
    <g transform="translate(696 0)">
      <rect x="0" y="84" width="18" height="18" fill="#F3EFE7"/>
      <rect x="28" y="84" width="18" height="18" fill="#D97757"/>
      <rect x="56" y="84" width="18" height="18" fill="#F3EFE7"/>
      <path d="M32 93L37 98L44 88" stroke="#1E1D1A" stroke-width="3" fill="none"/>
      <text x="0" y="174" fill="#F3EFE7">SELECT</text>
    </g>
    <g transform="translate(890 0)">
      <path d="M0 80H52L68 96V120H0Z" stroke="#F3EFE7" stroke-width="5" fill="none"/>
      <path d="M10 96H48M10 108H56" stroke="#D97757" stroke-width="4"/>
      <text x="0" y="174" fill="#F3EFE7">RENDER</text>
    </g>
    <g transform="translate(1064 0)">
      <path d="M0 98L14 112L46 78" stroke="#D97757" stroke-width="7" fill="none"/>
      <rect x="58" y="82" width="14" height="34" fill="#F3EFE7"/>
      <text x="0" y="174" fill="#F3EFE7">VERIFY</text>
    </g>
  </g>
</svg>
